<?xml version="1.0" encoding="utf-8"?>
<!-- Generator: Adobe Illustrator 16.0.0, SVG Export Plug-In . SVG Version: 6.00 Build 0)  -->
<!DOCTYPE svg PUBLIC "-//W3C//DTD SVG 1.1//EN" "http://www.w3.org/Graphics/SVG/1.1/DTD/svg11.dtd">
<svg version="1.1" id="Livello_1" xmlns="http://www.w3.org/2000/svg" xmlns:xlink="http://www.w3.org/1999/xlink" x="0px" y="0px"
	 width="1300px" height="1300px" viewBox="0 0 1300 1300" style="enable-background:new 0 0 1300 1300;" xml:space="preserve">
<path style="fill:#FFFFFF;" d="M650,56.4c326.9,0,593.7,266.8,593.7,593.7c0,326.9-266.7,593.6-593.7,593.6S56.4,977,56.4,650
	S323.1,56.4,650,56.4 M650,0C293.1,0,0,293.1,0,650c0,357,293.1,650,650,650c356.9,0,650-293.1,650-650C1300,293.1,1010.7,0,650,0
	L650,0z"/>
<g>
	<g>
		<path style="fill:#FFFFFF;" d="M650,56.4c326.9,0,593.7,266.8,593.7,593.7c0,326.9-266.7,593.6-593.7,593.6S56.4,977,56.4,650
			S323.1,56.4,650,56.4 M650,0C293.1,0,0,293.1,0,650c0,357,293.1,650,650,650c356.9,0,650-293.1,650-650C1300,293.1,1010.7,0,650,0
			L650,0z"/>
		<path style="fill:#FFFFFF;" d="M649.9,0L649.9,0C293,0.1,0,293.2,0,650c0,223.1,114.5,421.2,287.5,538.5c0,0,13.4,9.1,26,16.8
			c3.6,1.6,7.4,2.5,11.5,2.5c15.6,0,28.3-12.7,28.3-28.3c0-8.3-3.6-15.8-9.2-20.9c-5.7-3.5-16.3-10.2-16.3-10.2
			c-163.1-106-271.3-289.9-271.3-498.1c0-326,265.1-592,590.5-593.8c1,0.1,5.4,0.1,6.5,0c14.1-1.6,25-13.6,25-28.1
			C678.2,12.7,665.6,0,649.9,0z"/>
	</g>
	<g>
		<path style="fill:#FFFFFF;" d="M650,56.4c326.9,0,593.7,266.8,593.7,593.7c0,326.9-266.7,593.6-593.7,593.6S56.4,977,56.4,650
			S323.1,56.4,650,56.4 M650,0C293.1,0,0,293.1,0,650c0,357,293.1,650,650,650c356.9,0,650-293.1,650-650C1300,293.1,1010.7,0,650,0
			L650,0z"/>
		<path style="fill:#3B3B3B;" d="M649.9,0L649.9,0C293,0.1,0,293.2,0,650c0,223.1,114.5,421.2,287.5,538.5c0,0,13.4,9.1,26,16.8
			c3.6,1.6,7.4,2.5,11.5,2.5c15.6,0,28.3-12.7,28.3-28.3c0-8.3-3.6-15.8-9.2-20.9c-5.7-3.5-16.3-10.2-16.3-10.2
			c-163.1-106-271.3-289.9-271.3-498.1c0-326,265.1-592,590.5-593.8c1,0.1,5.4,0.1,6.5,0c14.1-1.6,25-13.6,25-28.1
			C678.2,12.7,665.6,0,649.9,0z"/>
		
			<animateTransform  type="rotate" fill="remove" restart="always" from="0 650 650" accumulate="none" to="360 650 650" dur="1s" repeatCount="indefinite" attributeType="XML" attributeName="transform" additive="replace" calcMode="linear">
			</animateTransform>
	</g>
</g>
<path style="fill:#00B8B0;" d="M787.8,782.2l78.5-86c4.3-4.7,4.3-11.8,0.3-16.5L604.1,362.6c-25.8-30.7-63.6-48.7-104-48.7h-92.2
	c-10.6,0-16.4,12.4-9.6,20.8l370.6,447.2C773.5,787.8,782.5,787.8,787.8,782.2L787.8,782.2z"/>
<path style="fill:#662046;" d="M345.2,443c40,0,78.2,18,103.7,48.7l249.8,301.7c21.4,25.8,20.5,63.6-2.2,88.5l-56.2,61.5l-29.2,32
	c-6.5,6.8-15.5,10.9-24.8,10.9H443.6c-10.9,0-16.8-13-9.3-21.1l78.2-85.7c22.7-24.8,23.6-62.7,2.2-88.5L243.1,463.8
	c-6.8-8.4-0.9-20.8,9.6-20.8H345.2L345.2,443z M1047.3,466.6h-99c-37.9,0-73.9,15.8-99.6,43.8l-15.2,16.8
	c-4.3,4.7-4.3,11.8-0.3,16.4l72.6,87.8c5,5.9,14,6.2,18.9,0.3l131.9-144C1064,479.6,1058.1,466.6,1047.3,466.6L1047.3,466.6z"/>
</svg>
